<svg width="1024" height="1024" viewBox="0 0 1024 1024" fill="none" xmlns="http://www.w3.org/2000/svg">
<g opacity="0.1">
<path d="M492.03 658.869C492.03 658.869 504.343 692.698 533.473 682.095C562.604 671.493 553.11 636.638 553.11 636.638" stroke="#B342A1" stroke-width="30" stroke-linecap="round"/>
<path d="M553.58 636.467C553.58 636.467 565.893 670.296 595.023 659.693C624.154 649.09 614.66 614.235 614.66 614.235" stroke="#B342A1" stroke-width="30" stroke-linecap="round"/>
<path d="M644.333 559.804C644.333 559.804 666.223 622.869 727.687 600.233C789.152 577.597 766.493 515.342 766.493 515.342" stroke="#B342A1" stroke-width="30" stroke-linecap="round"/>
<path d="M319.67 677.972C319.67 677.972 341.559 741.037 403.024 718.401C464.489 695.765 441.83 633.509 441.83 633.509" stroke="#B342A1" stroke-width="30" stroke-linecap="round"/>
<path d="M215.125 487.225C215.125 487.225 180.774 614.127 233.387 704.055C275.22 775.56 307.266 800.945 375.797 810.253C430.094 817.627 526.628 785.781 600.606 759.822C677.747 732.754 766.331 688.862 803.827 654.463C855.445 607.108 858.427 540.046 848.245 479.733C829.373 367.946 723.627 301.081 723.627 301.081" stroke="#B342A1" stroke-width="30" stroke-linecap="round"/>
<path d="M201.387 545.966C201.387 545.966 101.818 421.515 115.734 386.653C129.649 351.792 290.14 349.779 290.14 349.779C290.14 349.779 365.802 284.868 424.462 264.176C480.609 244.37 575.806 245.805 575.806 245.805C575.806 245.805 699.831 147.987 734.051 161.604C768.272 175.221 770.371 338.873 770.371 338.873" stroke="#B342A1" stroke-width="30" stroke-linecap="round"/>
</g>
</svg>
