<svg width="1451" height="547" viewBox="0 0 1451 547" fill="none" xmlns="http://www.w3.org/2000/svg">
<g clip-path="url(#clip0_22_327)">
<path fill-rule="evenodd" clip-rule="evenodd" d="M98.8994 362.869C98.8995 362.863 98.8996 352.858 108.898 353.008C118.897 353.158 118.897 363.153 118.897 363.149L118.898 363.142L118.898 363.131C118.898 363.128 118.898 363.127 118.898 363.127L118.898 363.128C118.898 363.134 118.898 363.155 118.898 363.191C118.898 363.263 118.898 363.394 118.902 363.58C118.908 363.953 118.925 364.546 118.968 365.325C119.054 366.888 119.244 369.184 119.657 371.963C120.491 377.572 122.197 384.88 125.613 392.049C129.012 399.182 133.994 405.96 141.325 410.963C148.584 415.917 158.772 419.564 173.361 419.508C187.962 419.453 198.257 415.752 205.653 410.736C213.118 405.674 218.229 398.863 221.743 391.74C225.275 384.581 227.091 377.307 228.008 371.739C228.462 368.979 228.686 366.7 228.795 365.151C228.85 364.378 228.876 363.792 228.888 363.423C228.894 363.239 228.897 363.109 228.898 363.039C228.898 363.003 228.898 362.983 228.899 362.978L228.899 362.981L228.898 362.992V362.999C228.898 363.004 228.898 353.008 238.898 353.008C248.898 353.008 248.898 363.013 248.898 363.019L248.898 363.031L248.898 363.059L248.898 363.135C248.897 363.193 248.897 363.268 248.895 363.358C248.892 363.538 248.887 363.78 248.877 364.082C248.857 364.683 248.819 365.521 248.746 366.56C248.599 368.634 248.311 371.534 247.742 374.989C246.612 381.85 244.334 391.155 239.679 400.59C235.006 410.061 227.835 419.859 216.878 427.289C205.853 434.766 191.585 439.439 173.436 439.508C155.275 439.577 141.025 434.973 130.05 427.482C119.146 420.04 112.097 410.177 107.559 400.653C103.038 391.167 100.9 381.803 99.8744 374.904C99.3578 371.43 99.1136 368.513 98.9986 366.426C98.941 365.381 98.9155 364.54 98.9048 363.935C98.8994 363.632 98.8978 363.389 98.8976 363.208C98.8975 363.118 98.8978 363.043 98.8982 362.985L98.8989 362.909L98.8993 362.881L98.8994 362.869Z" fill="#B342A1"/>
<path fill-rule="evenodd" clip-rule="evenodd" d="M435.899 362.87C435.9 362.865 435.9 352.86 445.898 353.01C455.897 353.16 455.897 363.155 455.897 363.151L455.898 363.143L455.898 363.133C455.898 363.13 455.898 363.128 455.898 363.128V363.13C455.898 363.136 455.898 363.157 455.898 363.193C455.898 363.265 455.898 363.396 455.902 363.582C455.908 363.955 455.925 364.547 455.968 365.327C456.054 366.89 456.244 369.186 456.657 371.965C457.491 377.574 459.197 384.881 462.613 392.051C466.012 399.183 470.994 405.961 478.325 410.964C485.584 415.919 495.772 419.565 510.361 419.51C524.962 419.454 535.257 415.753 542.653 410.738C550.118 405.676 555.229 398.865 558.743 391.742C562.275 384.583 564.091 377.309 565.008 371.741C565.463 368.98 565.686 366.702 565.795 365.153C565.85 364.38 565.876 363.793 565.888 363.424C565.894 363.24 565.897 363.111 565.898 363.04C565.898 363.005 565.899 362.985 565.899 362.979L565.898 362.983V363.001C565.898 363.005 565.898 353.01 575.898 353.01C585.898 353.01 585.898 363.015 585.898 363.02L585.898 363.032L585.898 363.061L585.898 363.136C585.897 363.195 585.897 363.269 585.895 363.359C585.892 363.539 585.887 363.782 585.877 364.083C585.857 364.685 585.819 365.522 585.746 366.561C585.599 368.636 585.311 371.536 584.742 374.99C583.612 381.852 581.334 391.156 576.679 400.591C572.006 410.062 564.835 419.861 553.878 427.291C542.853 434.767 528.585 439.441 510.436 439.51C492.275 439.579 478.025 434.974 467.05 427.484C456.146 420.041 449.097 410.179 444.559 400.655C440.038 391.169 437.9 381.805 436.874 374.906C436.358 371.431 436.114 368.514 435.999 366.428C435.941 365.383 435.916 364.541 435.905 363.937C435.899 363.634 435.898 363.39 435.898 363.21C435.898 363.119 435.898 363.045 435.898 362.986L435.899 362.911L435.899 362.882L435.899 362.87Z" fill="#B342A1"/>
<path d="M799.398 456.508C787.731 452.841 777.814 447.258 769.648 439.758C761.481 432.425 755.314 423.925 751.148 414.258C746.981 404.425 744.898 394.091 744.898 383.258C744.898 371.425 747.314 359.758 752.148 348.258C757.148 336.758 764.148 327.425 773.148 320.258C780.314 314.258 789.064 309.758 799.398 306.758C809.731 303.591 820.231 302.008 830.898 302.008C841.231 302.008 851.148 303.425 860.648 306.258C870.148 309.091 878.148 313.425 884.648 319.258C886.481 321.091 887.398 323.008 887.398 325.008C887.398 326.508 886.648 328.175 885.148 330.008C883.481 331.675 881.648 332.508 879.648 332.508C877.648 332.508 875.898 331.758 874.398 330.258C870.064 325.925 863.648 322.675 855.148 320.508C846.648 318.175 837.981 317.008 829.148 317.008C822.981 317.008 816.981 317.591 811.148 318.758C805.481 319.758 800.564 321.341 796.398 323.508C784.731 329.175 775.731 337.508 769.398 348.508C763.231 359.341 760.148 370.925 760.148 383.258C760.148 395.925 763.731 407.591 770.898 418.258C778.231 428.758 788.481 436.341 801.648 441.008C810.148 444.008 818.814 445.508 827.648 445.508C836.481 445.508 845.064 444.008 853.398 441.008C861.898 438.175 869.231 434.091 875.398 428.758C877.231 427.425 878.981 426.758 880.648 426.758C882.814 426.758 884.731 427.591 886.398 429.258C887.731 431.091 888.398 432.841 888.398 434.508C888.398 436.508 887.481 438.258 885.648 439.758C877.648 446.758 868.648 452.008 858.648 455.508C848.648 459.008 838.398 460.758 827.898 460.758C818.398 460.758 808.898 459.341 799.398 456.508Z" fill="#222222"/>
<path d="M931.472 457.758C926.805 457.758 923.972 455.508 922.972 451.008C921.305 443.175 920.138 433.341 919.472 421.508C918.805 409.675 918.472 397.008 918.472 383.508C918.472 371.341 918.722 359.091 919.222 346.758C919.722 334.258 920.388 322.425 921.222 311.258C922.222 300.091 923.305 290.425 924.472 282.258C924.805 279.591 925.805 277.758 927.472 276.758C929.305 275.758 931.055 275.425 932.722 275.758C934.888 275.925 936.638 276.758 937.972 278.258C939.305 279.758 939.805 281.675 939.472 284.008C938.805 289.675 938.138 296.425 937.472 304.258C936.805 311.925 936.138 320.008 935.472 328.508C934.972 336.841 934.555 344.841 934.222 352.508C933.888 360.175 933.722 366.758 933.722 372.258C939.222 360.591 946.972 351.175 956.972 344.008C967.138 336.841 978.388 333.258 990.722 333.258C1006.72 333.425 1020.06 336.925 1030.72 343.758C1041.56 350.425 1049.64 359.758 1054.97 371.758C1060.31 383.591 1062.97 397.341 1062.97 413.008C1062.97 426.175 1061.31 439.008 1057.97 451.508C1056.81 455.341 1054.47 457.258 1050.97 457.258C1048.64 457.258 1046.64 456.341 1044.97 454.508C1043.31 452.841 1042.81 450.675 1043.47 448.008C1046.31 437.175 1047.72 426.258 1047.72 415.258C1047.72 395.925 1043.14 380.341 1033.97 368.508C1024.97 356.508 1011.22 350.341 992.722 350.008C982.555 350.008 973.805 352.758 966.472 358.258C959.305 363.758 953.472 370.925 948.972 379.758C944.805 388.091 941.722 396.425 939.722 404.758C937.722 413.091 936.722 421.758 936.722 430.758C936.722 433.591 936.805 436.508 936.972 439.508C937.305 442.675 937.638 445.841 937.972 449.008C938.305 451.675 937.722 453.675 936.222 455.008C934.722 456.508 933.138 457.425 931.472 457.758Z" fill="#222222"/>
<path d="M1168.53 457.258C1167.2 457.425 1165.78 457.508 1164.28 457.508C1162.95 457.508 1161.62 457.508 1160.28 457.508C1145.45 457.508 1132.2 454.341 1120.53 448.008C1108.87 441.841 1099.7 433.258 1093.03 422.258C1086.37 411.258 1083.03 398.675 1083.03 384.508C1083.03 371.175 1085.62 358.925 1090.78 347.758C1096.12 336.425 1103.62 327.008 1113.28 319.508C1122.95 312.008 1134.37 307.258 1147.53 305.258C1149.37 304.925 1151.37 304.675 1153.53 304.508C1155.7 304.341 1157.87 304.258 1160.03 304.258C1169.03 304.258 1178.37 305.508 1188.03 308.008C1197.87 310.341 1206.12 313.675 1212.78 318.008C1213.62 316.175 1214.95 315.091 1216.78 314.758C1218.62 314.258 1220.12 314.175 1221.28 314.508C1223.12 314.675 1224.53 315.508 1225.53 317.008C1226.53 318.508 1227.03 320.258 1227.03 322.258C1226.87 326.091 1226.7 329.841 1226.53 333.508C1226.53 337.175 1226.53 340.841 1226.53 344.508C1226.53 363.175 1227.87 379.758 1230.53 394.258C1233.37 408.758 1238.62 421.425 1246.28 432.258C1247.28 433.758 1247.78 435.258 1247.78 436.758C1247.78 438.758 1246.95 440.425 1245.28 441.758C1243.78 443.091 1242.12 443.758 1240.28 443.758C1237.78 443.758 1235.7 442.675 1234.03 440.508C1232.37 438.175 1230.7 435.591 1229.03 432.758C1227.53 429.925 1226.28 427.425 1225.28 425.258C1218.45 434.758 1210.12 442.091 1200.28 447.258C1190.45 452.591 1179.87 455.925 1168.53 457.258ZM1163.53 442.758C1174.87 442.758 1185.28 439.591 1194.78 433.258C1204.45 426.925 1212.28 418.258 1218.28 407.258C1215.78 397.925 1213.95 387.091 1212.78 374.758C1211.62 362.425 1211.12 349.591 1211.28 336.258C1207.95 332.591 1203.53 329.508 1198.03 327.008C1192.53 324.508 1186.53 322.591 1180.03 321.258C1173.53 319.925 1167.12 319.258 1160.78 319.258C1156.62 319.258 1152.7 319.508 1149.03 320.008C1145.37 320.508 1141.95 321.425 1138.78 322.758C1126.12 327.425 1116.03 335.258 1108.53 346.258C1101.2 357.091 1097.53 369.508 1097.53 383.508C1097.53 395.841 1100.45 406.425 1106.28 415.258C1112.28 424.091 1120.28 430.925 1130.28 435.758C1140.28 440.425 1151.37 442.758 1163.53 442.758Z" fill="#222222"/>
<path d="M1441.9 476.758C1439.73 476.758 1437.81 477.508 1436.15 479.008C1434.65 480.341 1433.9 482.091 1433.9 484.258C1433.9 484.925 1434.06 485.758 1434.4 486.758C1434.4 486.758 1444.4 512.508 1428.9 520.008C1418.69 524.945 1403.51 522.124 1409.4 498.508C1415.28 474.892 1424.44 426.932 1426.1 418.258C1428.1 407.758 1429.1 396.925 1429.1 385.758C1429.1 371.258 1426.51 358.508 1421.35 347.508C1416.18 336.341 1408.68 327.675 1398.85 321.508C1389.18 315.341 1377.43 312.258 1363.6 312.258C1352.93 312.258 1342.93 314.758 1333.6 319.758C1324.26 324.591 1316.1 331.341 1309.1 340.008C1302.26 348.675 1297.1 358.675 1293.6 370.008C1293.6 362.008 1293.51 355.425 1293.35 350.258V335.258C1293.35 330.425 1293.26 324.758 1293.1 318.258C1293.1 315.925 1292.35 314.091 1290.85 312.758C1289.51 311.425 1287.85 310.758 1285.85 310.758C1284.18 310.425 1282.43 310.841 1280.6 312.008C1278.93 313.175 1278.1 315.175 1278.1 318.008C1277.93 320.508 1277.85 323.175 1277.85 326.008V335.008C1277.85 346.008 1278.1 358.091 1278.6 371.258C1279.26 384.258 1280.01 397.258 1280.85 410.258C1281.85 423.091 1282.93 434.758 1284.1 445.258C1284.6 450.091 1286.93 452.508 1291.1 452.508C1292.93 452.508 1294.68 451.841 1296.35 450.508C1298.18 449.341 1299.1 447.258 1299.1 444.258C1298.93 442.591 1298.85 440.841 1298.85 439.008V434.008C1298.85 422.175 1300.1 410.008 1302.6 397.508C1305.26 385.008 1309.18 373.841 1314.35 364.008C1320.18 353.341 1327.43 344.758 1336.1 338.258C1344.76 331.758 1355.1 328.758 1367.1 329.258C1383.1 330.425 1394.76 336.341 1402.1 347.008C1409.6 357.508 1413.35 371.675 1413.35 389.508C1413.35 398.508 1412.43 407.925 1410.6 417.758C1409.21 425.819 1393 489.508 1390.9 503.008C1388.8 516.508 1396.4 535.508 1415.4 535.508C1437.4 535.508 1444.89 526.327 1446.9 521.508C1454.4 503.508 1448.65 482.008 1448.65 482.008C1448.15 480.175 1447.23 478.841 1445.9 478.008C1444.73 477.175 1443.4 476.758 1441.9 476.758Z" fill="#222222"/>
<path fill-rule="evenodd" clip-rule="evenodd" d="M190.002 53.9145L190.095 53.9471L193.522 55.146L196.929 53.8637L196.972 53.8478L197.156 53.7789C197.323 53.7168 197.577 53.6226 197.914 53.4985C198.589 53.2503 199.596 52.8826 200.906 52.4126C203.525 51.4725 207.354 50.1239 212.148 48.5046C221.742 45.264 235.175 40.9492 250.517 36.6562C281.466 27.9961 319.195 19.7131 348.798 20.0075C377.134 20.2894 413.167 28.5803 442.705 37.0893C457.348 41.3075 470.163 45.5102 479.314 48.6572C483.887 50.2297 487.538 51.5363 490.036 52.4461C491.285 52.901 492.246 53.2566 492.889 53.4964C493.057 53.5593 493.204 53.6143 493.329 53.661L493.611 53.7674L493.787 53.8339L493.828 53.8492L493.836 53.8523L493.837 53.8527L497.157 55.118L500.531 54.0044L500.534 54.0033L500.625 53.9736C500.692 53.9516 500.795 53.918 500.932 53.8732C501.206 53.7838 501.617 53.6499 502.159 53.4752C503.242 53.1259 504.842 52.6138 506.894 51.9691C510.999 50.6793 516.906 48.8599 524.084 46.751C538.455 42.5286 557.853 37.1668 578.053 32.5715C598.33 27.9589 619.068 24.2002 636.227 23.0562C644.82 22.4834 652.157 22.5933 657.919 23.4415C663.909 24.3233 666.959 25.8286 668.246 26.9746C669.212 27.836 670.805 30.2779 671.806 35.9656C672.766 41.4281 672.952 48.5841 672.381 57.1475C671.242 74.2336 667.224 95.1987 662.239 115.849C657.276 136.411 651.452 156.266 646.858 171.009C646.732 171.416 646.606 171.819 646.481 172.218C646.346 172.649 646.212 173.076 646.08 173.497C643.032 168.014 640.133 163.139 637.524 158.94C633.991 153.256 630.979 148.798 628.831 145.737C627.757 144.206 626.898 143.022 626.297 142.208C626.188 142.06 626.087 141.924 625.995 141.8C625.834 141.585 625.7 141.406 625.595 141.267C625.512 141.157 625.446 141.07 625.398 141.008L625.322 140.909L625.315 140.9C625.313 140.897 625.31 140.894 617.398 147.008L625.31 140.894C621.933 136.523 615.653 135.718 611.283 139.095C606.915 142.471 606.108 148.747 609.481 153.117L609.482 153.118L609.485 153.123L609.508 153.152C609.533 153.186 609.577 153.244 609.638 153.324C609.688 153.39 609.748 153.471 609.82 153.566C609.858 153.617 609.898 153.671 609.942 153.729C610.02 153.835 610.109 153.954 610.206 154.086C610.716 154.776 611.48 155.829 612.458 157.223C614.414 160.011 617.219 164.158 620.537 169.498C627.181 180.187 635.849 195.595 643.892 214.381C660.034 252.085 673.323 302.613 663.562 355.7C652.693 414.82 627.964 472.42 568.065 497.271C545.841 506.492 510.611 513.976 470.193 519.002C429.988 524.002 385.439 526.477 345.013 526.009C305.839 525.555 261.215 524.556 220.419 520.528C179.262 516.465 143.444 509.431 121.051 497.657C91.3828 482.058 72.2851 466.322 58.6518 445.309C44.8685 424.064 36.0858 396.542 28.7355 356.215C19.9 307.739 33.3418 257.375 49.6185 218.426C57.7055 199.075 66.3694 182.832 73.0052 171.44C76.3199 165.749 79.1198 161.284 81.0762 158.263C82.0541 156.752 82.8205 155.604 83.3342 154.845C83.591 154.465 83.7845 154.183 83.9096 154.002C83.9722 153.912 84.0177 153.846 84.0454 153.806L84.0745 153.765L84.076 153.763C87.2535 149.247 86.1696 143.01 81.6544 139.831C77.1384 136.652 70.9002 137.735 67.7208 142.251L75.8977 148.008C67.7208 142.251 67.719 142.254 67.7168 142.257L67.6943 142.289L67.6404 142.366L67.6036 142.419L67.5144 142.548L67.4526 142.637C67.2925 142.869 67.0634 143.203 66.7704 143.636C66.1846 144.502 65.3432 145.763 64.2882 147.392C62.1787 150.65 59.2119 155.384 55.7233 161.373C52.9967 166.054 49.946 171.511 46.7333 177.637C46.1509 175.744 45.5361 173.725 44.8954 171.596C40.5415 157.124 35.0101 137.589 30.261 117.236C25.4939 96.8055 21.5998 75.9037 20.3888 58.5915C19.7825 49.9228 19.8773 42.5148 20.7313 36.6889C21.6173 30.6447 23.149 27.5212 24.357 26.1682C25.3492 25.057 27.9009 23.4266 33.5097 22.3706C38.9294 21.3501 45.9986 21.0935 54.4416 21.5849C71.2932 22.5657 91.9117 26.41 112.209 31.2368C132.417 36.0422 151.905 41.7233 166.37 46.2146C173.594 48.4575 179.545 50.3975 183.682 51.774C185.75 52.4621 187.364 53.0091 188.456 53.3822C189.002 53.5688 189.417 53.7119 189.693 53.8074L189.87 53.8688L190.002 53.9145ZM658.868 198.802C660.012 201.306 661.151 203.877 662.278 206.51C679.262 246.181 693.972 300.903 683.233 359.316C671.982 420.511 645.235 486.907 575.73 515.745C550.954 526.024 513.557 533.764 472.661 538.85C431.553 543.962 386.102 546.486 344.782 546.007C305.561 545.553 260.185 544.551 218.454 540.431C177.085 536.347 137.851 529.086 111.744 515.359C80.1979 498.773 57.9729 481.009 41.8735 456.194C25.924 431.61 16.564 400.974 9.05964 359.801C-0.78701 305.777 14.2712 251.141 31.1651 210.715C32.186 208.272 33.2154 205.876 34.2487 203.532C33.9194 202.963 33.6416 202.354 33.4233 201.708L35.3487 201.058L35.3491 201.057C33.4229 201.707 33.4225 201.705 33.4221 201.704L33.3813 201.583C33.3551 201.505 33.3169 201.391 33.2673 201.243C33.168 200.945 33.0226 200.509 32.8351 199.941C32.4602 198.805 31.9165 197.145 31.2353 195.027C29.8731 190.792 27.9594 184.723 25.7434 177.358C21.316 162.642 15.66 142.677 10.7841 121.78C5.92617 100.96 1.75785 78.8624 0.437565 59.987C-0.22169 50.562 -0.199324 41.5794 0.942782 33.7881C2.05289 26.2151 4.39625 18.4949 9.43826 12.8479C14.6961 6.95918 22.3475 4.1208 29.809 2.71591C37.4596 1.27542 46.3279 1.07887 55.6037 1.61872C74.1897 2.70045 96.1336 6.85621 116.836 11.7794C137.629 16.7239 157.578 22.5429 172.3 27.1141C179.67 29.4024 185.75 31.3843 189.996 32.7968C191.259 33.217 192.36 33.5869 193.284 33.8996C193.558 33.801 193.846 33.697 194.15 33.5879C196.876 32.6099 200.823 31.2197 205.747 29.5563C215.591 26.2314 229.37 21.8053 245.128 17.396C276.379 8.65134 316.4 -0.315663 348.997 0.00853543C380.195 0.318821 418.412 9.27787 448.241 17.8709C463.282 22.2036 476.428 26.515 485.818 29.7442C490.516 31.3598 494.281 32.7069 496.881 33.6537C497.141 33.7484 497.389 33.839 497.625 33.9255C498.544 33.6321 499.64 33.2843 500.899 32.8888C505.105 31.5673 511.132 29.7109 518.446 27.562C533.059 23.2688 552.88 17.7869 573.617 13.0697C594.278 8.36976 616.196 4.34724 634.897 3.10055C644.234 2.47807 653.127 2.52055 660.832 3.65474C668.309 4.75538 675.961 7.06253 681.55 12.0415C687.458 17.3052 690.193 25.0507 691.503 32.5016C692.853 40.1778 692.961 49.1117 692.336 58.4779C691.085 77.2512 686.759 99.5048 681.681 120.542C676.582 141.668 670.624 161.969 665.953 176.96C663.614 184.464 661.592 190.657 660.152 194.981C659.65 196.489 659.218 197.771 658.868 198.802ZM658.868 198.802C654.563 189.376 650.186 180.885 646.08 173.497C644.116 179.744 642.42 184.927 641.177 188.662C640.474 190.772 639.916 192.418 639.535 193.533C639.344 194.09 639.198 194.514 639.101 194.796C639.052 194.937 639.015 195.043 638.991 195.112L638.965 195.188L638.959 195.205L638.958 195.209C637.135 200.422 639.885 206.126 645.098 207.948C650.312 209.77 656.015 207.021 657.838 201.807L648.398 198.508C657.838 201.807 657.838 201.806 657.839 201.804L657.841 201.796L657.85 201.771L657.882 201.68C657.91 201.6 657.95 201.484 658.003 201.332C658.108 201.028 658.262 200.581 658.46 200.001C658.58 199.65 658.716 199.249 658.868 198.802Z" fill="#B342A1"/>
<path d="M658.003 201.332C658.108 201.028 658.262 200.581 658.46 200.001C658.58 199.65 658.716 199.249 658.868 198.802C654.563 189.376 650.186 180.885 646.08 173.497C644.116 179.744 642.42 184.927 641.177 188.662C640.474 190.772 639.916 192.418 639.535 193.533C639.344 194.09 639.198 194.514 639.101 194.796C639.052 194.937 639.015 195.043 638.991 195.112L638.965 195.188L638.959 195.205L638.958 195.209C637.135 200.422 639.885 206.126 645.098 207.948C650.312 209.77 656.015 207.021 657.838 201.807L648.398 198.508C657.838 201.807 657.838 201.806 657.839 201.804L657.841 201.796L657.85 201.771L657.882 201.68C657.91 201.6 657.95 201.484 658.003 201.332Z" fill="#B342A1"/>
<path fill-rule="evenodd" clip-rule="evenodd" d="M341.637 433.483C335.131 442.255 324.62 450.008 308.398 450.008C298.56 450.008 290.565 447.099 284.354 442.29C278.283 437.59 274.48 431.519 272.088 425.963C269.695 420.406 268.548 414.988 267.983 411.054C267.697 409.061 267.552 407.382 267.477 406.169C267.44 405.56 267.42 405.064 267.409 404.699C267.404 404.516 267.401 404.366 267.399 404.25C267.399 404.192 267.398 404.143 267.398 404.102L267.398 404.048L267.398 404.027V404.017C267.398 404.012 267.398 394.008 277.398 394.008C287.398 394.008 287.398 404.004 287.398 404V403.993L287.398 403.981V403.972C287.398 403.993 287.399 404.044 287.401 404.125C287.406 404.287 287.416 404.565 287.439 404.941C287.486 405.696 287.582 406.83 287.781 408.212C288.185 411.028 288.975 414.61 290.457 418.053C291.94 421.497 293.95 424.426 296.597 426.476C299.105 428.417 302.735 430.008 308.398 430.008C318.973 430.008 324.602 424.299 328.128 417.437C329.946 413.901 331.049 410.254 331.692 407.421C332.009 406.025 332.201 404.882 332.311 404.121C332.344 403.897 332.369 403.707 332.388 403.556C332.401 403.452 332.411 403.366 332.418 403.299C332.425 403.238 332.43 403.193 332.433 403.165C332.434 402.932 332.553 393.188 342.398 394.008C342.467 394.014 342.537 394.02 342.605 394.027C342.7 394.036 342.794 394.046 342.888 394.057C332.898 394.064 332.898 404.061 332.898 404.066V404.076L332.898 404.098L332.898 404.152C332.898 404.192 332.899 404.241 332.899 404.299C332.901 404.415 332.904 404.566 332.909 404.748C332.92 405.114 332.94 405.61 332.977 406.218C333.052 407.431 333.197 409.11 333.483 411.103C334.048 415.037 335.195 420.455 337.588 426.012C338.64 428.456 339.966 431 341.637 433.483ZM341.637 433.483C343.322 431.211 344.739 428.87 345.917 426.579C348.725 421.115 350.308 415.762 351.197 411.845C351.646 409.866 351.93 408.196 352.105 406.988C352.193 406.383 352.253 405.889 352.294 405.526C352.315 405.344 352.33 405.194 352.341 405.079C352.347 405.021 352.351 404.972 352.355 404.932L352.36 404.879L352.362 404.857L352.362 404.847C352.363 404.843 352.363 395.169 342.888 394.057H342.898C352.898 394.057 352.898 404.053 352.898 404.049V404.042L352.898 404.03V404.021C352.898 404.042 352.899 404.094 352.901 404.174C352.903 404.25 352.907 404.35 352.912 404.474C352.918 404.616 352.927 404.789 352.939 404.99C352.986 405.745 353.082 406.879 353.281 408.261C353.685 411.077 354.475 414.659 355.957 418.103C357.44 421.546 359.45 424.475 362.097 426.525C364.605 428.466 368.235 430.057 373.898 430.057C384.473 430.057 390.102 424.348 393.628 417.486C395.446 413.95 396.549 410.303 397.192 407.47C397.509 406.075 397.701 404.931 397.811 404.171C397.866 403.792 397.9 403.512 397.918 403.348C397.925 403.287 397.93 403.242 397.933 403.214C397.934 402.981 398.053 393.237 407.898 394.057C417.863 394.888 417.863 404.892 417.862 404.896L417.862 404.906L417.86 404.928L417.855 404.981L417.849 405.046L417.841 405.128C417.83 405.243 417.815 405.393 417.794 405.575C417.753 405.938 417.693 406.432 417.605 407.037C417.43 408.246 417.146 409.915 416.697 411.894C415.808 415.811 414.225 421.164 411.417 426.628C405.693 437.766 394.322 450.057 373.898 450.057C364.06 450.057 356.065 447.148 349.854 442.339C346.454 439.707 343.765 436.644 341.637 433.483ZM397.936 403.185C397.936 403.18 397.936 403.182 397.935 403.193L397.936 403.185Z" fill="#B342A1"/>
<path d="M352.362 404.857L352.362 404.847C352.363 404.843 352.363 395.169 342.888 394.057C332.898 394.064 332.898 404.061 332.898 404.066V404.076L332.898 404.098L332.898 404.152C332.898 404.192 332.899 404.241 332.899 404.299C332.901 404.415 332.904 404.566 332.909 404.748C332.92 405.114 332.94 405.61 332.977 406.218C333.052 407.431 333.197 409.11 333.483 411.103C334.048 415.037 335.195 420.455 337.588 426.012C338.64 428.456 339.966 431 341.637 433.483C343.322 431.211 344.739 428.87 345.917 426.579C348.725 421.115 350.308 415.762 351.197 411.845C351.646 409.866 351.93 408.196 352.105 406.988C352.193 406.383 352.253 405.889 352.294 405.526C352.315 405.344 352.33 405.194 352.341 405.079C352.347 405.021 352.351 404.972 352.355 404.932L352.36 404.879L352.362 404.857Z" fill="#B342A1"/>
</g>
<defs>
<clipPath id="clip0_22_327">
<rect width="1450.75" height="546.065" fill="white"/>
</clipPath>
</defs>
</svg>
